<svg width="30" height="30" viewBox="0 0 30 30" fill="none" xmlns="http://www.w3.org/2000/svg">
<path fill-rule="evenodd" clip-rule="evenodd" d="M14.9987 0.5C6.9927 0.5 0.5 6.99186 0.5 15.0005C0.5 21.406 4.6543 26.8412 10.4162 28.7594C11.1417 28.892 11.406 28.4444 11.406 28.0598C11.406 27.7152 11.3936 26.8038 11.3865 25.594C7.35322 26.47 6.50224 23.65 6.50224 23.65C5.84264 21.9748 4.89198 21.5288 4.89198 21.5288C3.57546 20.6298 4.99168 20.6476 4.99168 20.6476C6.44706 20.75 7.21258 22.1422 7.21258 22.1422C8.50596 24.3576 10.6067 23.7176 11.4328 23.3464C11.5645 22.41 11.9392 21.7708 12.3532 21.4086C9.1335 21.0418 5.7483 19.7984 5.7483 14.2421C5.7483 12.6585 6.31354 11.3651 7.24106 10.3513C7.09152 9.98452 6.59394 8.51042 7.38348 6.51382C7.38348 6.51382 8.6003 6.12392 11.3704 7.99946C12.5267 7.67812 13.7676 7.5179 15.0004 7.51166C16.2324 7.5179 17.4724 7.67812 18.6305 7.99946C21.3988 6.12392 22.6138 6.51382 22.6138 6.51382C23.4052 8.51042 22.9076 9.98452 22.759 10.3513C23.6882 11.3651 24.249 12.6585 24.249 14.2421C24.249 19.8126 20.8584 21.0384 17.629 21.397C18.1489 21.8448 18.6127 22.7296 18.6127 24.0826C18.6127 26.0204 18.5948 27.5844 18.5948 28.0598C18.5948 28.4478 18.8566 28.8992 19.5918 28.7576C25.3492 26.8358 29.5 21.405 29.5 15.0005C29.5 6.99186 23.0072 0.5 14.9987 0.5Z" fill="black"/>
</svg>
