<svg width="30" height="30" viewBox="0 0 30 30" fill="none" xmlns="http://www.w3.org/2000/svg">
<path fill-rule="evenodd" clip-rule="evenodd" d="M4 2C2.89544 2 2 2.89544 2 4V26C2 27.1046 2.89544 28 4 28H26C27.1046 28 28 27.1046 28 26V4C28 2.89544 27.1046 2 26 2H4ZM6.1 12H9.9V24H6.1V12ZM10.15 8.01C10.15 9.19742 9.18742 10.16 8 10.16C6.8126 10.16 5.85 9.19742 5.85 8.01C5.85 6.82258 6.8126 5.86 8 5.86C9.18742 5.86 10.15 6.82258 10.15 8.01ZM24 16.7143C24 13.1042 21.6668 11.7007 19.349 11.7007C18.59 11.6633 17.8344 11.8224 17.1575 12.1621C16.6434 12.4201 16.1053 13.0105 15.6903 14.0371H15.5836V12.0009H12V24.0094H15.8123V17.6224C15.7572 16.9683 15.9665 16.1228 16.3948 15.6197C16.8231 15.1166 17.4358 14.9965 17.9003 14.9355H18.0452C19.2575 14.9355 20.1572 15.686 20.1572 17.5774V24.0094H23.9694L24 16.7143Z" fill="black"/>
</svg>
